<?xml version="1.0" encoding="UTF-8" standalone="no"?>
<!-- Created with Inkscape (http://www.inkscape.org/) -->

<svg
   width="210mm"
   height="297mm"
   viewBox="0 0 210 297"
   version="1.1"
   id="svg5"
   inkscape:version="1.1 (c68e22c387, 2021-05-23)"
   sodipodi:docname="data.svg"
   xmlns:inkscape="http://www.inkscape.org/namespaces/inkscape"
   xmlns:sodipodi="http://sodipodi.sourceforge.net/DTD/sodipodi-0.dtd"
   xmlns="http://www.w3.org/2000/svg"
   xmlns:svg="http://www.w3.org/2000/svg">
  <sodipodi:namedview
     id="namedview7"
     pagecolor="#ffffff"
     bordercolor="#666666"
     borderopacity="1.0"
     inkscape:pageshadow="2"
     inkscape:pageopacity="0.0"
     inkscape:pagecheckerboard="0"
     inkscape:document-units="mm"
     showgrid="false"
     inkscape:zoom="1"
     inkscape:cx="319"
     inkscape:cy="403.5"
     inkscape:window-width="1920"
     inkscape:window-height="1017"
     inkscape:window-x="-8"
     inkscape:window-y="-8"
     inkscape:window-maximized="1"
     inkscape:current-layer="layer3"
     inkscape:snap-midpoints="true" />
  <defs
     id="defs2" />
  <g
     inkscape:groupmode="layer"
     id="layer3"
     inkscape:label="Layer 3">
    <path
       style="fill:#fffffc;stroke-width:0.264583;fill-opacity:1"
       d="m 88.767711,117.6106 v -6.87584 l 0.99218,-0.62308 c 0.54571,-0.34268 1.26008,-0.76509 1.5875,-0.93866 l 0.59532,-0.3156 v 7.81452 7.81451 h -1.5875 -1.5875 z m 5.8211,-1.78925 2.6e-4,-8.6651 1.38655,-0.79375 c 0.76261,-0.43657 1.47686,-0.83344 1.58724,-0.88195 0.11037,-0.0485 0.20068,4.20798 0.20068,9.45885 v 9.54705 h -1.5875 -1.5875 l 2.6e-4,-8.6651 z m 5.820559,-1.72412 V 103.708 l 1.43041,-0.85556 c 0.78673,-0.47056 1.5011,-0.85557 1.5875,-0.85557 0.0864,0 0.15709,5.06016 0.15709,11.24479 v 11.24479 h -1.5875 -1.5875 z m 5.82084,-0.38427 v -10.77348 l 1.5875,1.57093 1.5875,1.57094 v 9.20255 9.20255 h -1.5875 -1.5875 z m 5.8225,1.71151 0.002,-9.06197 0.72593,-0.42277 c 0.39927,-0.23252 1.17242,-0.69076 1.71812,-1.01832 l 0.99219,-0.59556 v 10.0803 10.0803 h -1.71979 -1.7198 l 0.002,-9.06198 z m 5.81916,-1.76678 v -10.82875 l 1.55597,-0.9452 c 0.85578,-0.51986 1.62968,-0.9452 1.71979,-0.9452 0.0901,0 0.16383,5.29828 0.16383,11.77395 v 11.77396 h -1.7198 -1.71979 z m 5.82084,-1.80942 V 99.210085 l 1.51739,-0.921711 c 0.83457,-0.506941 1.60848,-0.961398 1.71979,-1.009905 0.11132,-0.04851 0.2024,6.053441 0.2024,13.559891 v 13.64809 h -1.71979 -1.71979 z m -36.657509,-3.78612 c -0.37444,-0.59316 -0.73446,-1.21828 -0.80003,-1.38917 -0.10391,-0.27078 18.155989,-11.553916 19.034509,-11.761779 0.17251,-0.04082 1.60783,1.239105 3.1896,2.844271 1.58176,1.605166 2.93824,2.918478 3.0144,2.918478 0.21067,0 13.62057,-8.232392 14.04551,-8.622597 0.3152,-0.28944 0.22388,-0.588357 -0.6047,-1.979294 -0.53678,-0.901101 -0.94198,-1.664117 -0.90044,-1.695591 0.14783,-0.112007 9.16623,1.055451 9.31465,1.205809 0.0831,0.08421 -0.60762,2.153656 -1.535,4.598764 l -1.68613,4.445652 -1.12092,-1.886785 c -0.6165,-1.037733 -1.2137,-1.886786 -1.32711,-1.886786 -0.1134,0 -3.9396,2.308874 -8.50265,5.130831 l -8.29648,5.130827 -2.86621,-3.01416 c -1.57641,-1.65779 -2.97297,-3.014165 -3.10345,-3.014165 -0.13048,0 -3.98327,2.262185 -8.561749,5.027085 -4.57848,2.76489 -8.38942,5.02708 -8.46875,5.02708 -0.0793,0 -0.4506,-0.48531 -0.82505,-1.07847 z"
       id="path5657" />
  </g>
</svg>
