<?xml version="1.0" encoding="UTF-8" standalone="no"?>
<!-- Created with Inkscape (http://www.inkscape.org/) -->

<svg
   width="210mm"
   height="297mm"
   viewBox="0 0 210 297"
   version="1.1"
   id="svg5"
   inkscape:version="1.1 (c68e22c387, 2021-05-23)"
   sodipodi:docname="exit.svg"
   xmlns:inkscape="http://www.inkscape.org/namespaces/inkscape"
   xmlns:sodipodi="http://sodipodi.sourceforge.net/DTD/sodipodi-0.dtd"
   xmlns="http://www.w3.org/2000/svg"
   xmlns:svg="http://www.w3.org/2000/svg">
  <sodipodi:namedview
     id="namedview7"
     pagecolor="#ffffff"
     bordercolor="#666666"
     borderopacity="1.0"
     inkscape:pageshadow="2"
     inkscape:pageopacity="0.0"
     inkscape:pagecheckerboard="0"
     inkscape:document-units="mm"
     showgrid="false"
     inkscape:zoom="0.52410025"
     inkscape:cx="345.35378"
     inkscape:cy="651.5929"
     inkscape:window-width="1920"
     inkscape:window-height="1017"
     inkscape:window-x="-8"
     inkscape:window-y="-8"
     inkscape:window-maximized="1"
     inkscape:current-layer="layer1" />
  <defs
     id="defs2" />
  <g
     inkscape:label="Layer 1"
     inkscape:groupmode="layer"
     id="layer1">
    <path
       style="fill:#fffff5;fill-opacity:1;stroke-width:0.264583"
       d="m 112.35219,163.55483 c 5.70275,-1.66416 10.19154,-6.42555 11.37593,-12.06675 1.77746,-8.466 -3.35014,-16.79739 -11.64346,-18.91847 -4.8078,-1.22962 -9.88866,-0.23042 -13.779455,2.70987 -1.411,1.06629 -1.8748,2.01421 -1.41368,2.88928 0.17949,0.34063 0.45735,0.70679 0.61747,0.8137 0.64122,0.42816 1.83641,0.17561 2.807015,-0.59313 1.95123,-1.54539 4.30823,-2.43516 6.83081,-2.57863 4.09968,-0.23316 7.22782,1.00656 9.96118,3.94774 5.64577,6.07505 3.8458,15.72531 -3.61451,19.37856 -4.39395,2.15168 -9.55674,1.60929 -13.28236,-1.39542 -1.298965,-1.04762 -2.304145,-1.08476 -3.068225,-0.11339 -0.74564,0.94792 -0.52632,1.82174 0.73248,2.91845 1.36095,1.1857 4.108565,2.58929 6.048335,3.08974 2.18526,0.56377 6.35534,0.52342 8.42847,-0.0815 z m -18.711985,-8.37759 c 0.41737,-0.29234 0.58804,-0.68088 0.58804,-1.33875 0,-0.75196 -0.25503,-1.19653 -1.35136,-2.35574 l -1.35136,-1.42886 8.599995,-0.0766 c 8.02514,-0.0715 8.63719,-0.11035 9.15656,-0.58069 0.70616,-0.63949 0.71919,-1.84689 0.0274,-2.53868 -0.50793,-0.50793 -0.88195,-0.52917 -9.318285,-0.52917 h -8.78911 l 1.51307,-1.52902 c 1.16378,-1.17605 1.51214,-1.7105 1.50902,-2.31511 -0.002,-0.43234 -0.0915,-0.91708 -0.19843,-1.07719 -0.34732,-0.52016 -1.42035,-0.94801 -2.0078,-0.80057 -0.31542,0.0792 -2.030735,1.61796 -3.811805,3.41953 -2.62741,2.65765 -3.23832,3.41877 -3.23832,4.03452 0,0.61957 0.62149,1.38042 3.38467,4.14359 3.563645,3.56365 4.052085,3.83826 5.287705,2.97279 z"
       id="path2747" />
  </g>
</svg>
