<?xml version="1.0" encoding="UTF-8" standalone="no"?>
<!-- Created with Inkscape (http://www.inkscape.org/) -->

<svg
   width="210mm"
   height="297mm"
   viewBox="0 0 210 297"
   version="1.1"
   id="svg5"
   inkscape:version="1.1 (c68e22c387, 2021-05-23)"
   sodipodi:docname="galaxy.svg"
   xmlns:inkscape="http://www.inkscape.org/namespaces/inkscape"
   xmlns:sodipodi="http://sodipodi.sourceforge.net/DTD/sodipodi-0.dtd"
   xmlns="http://www.w3.org/2000/svg"
   xmlns:svg="http://www.w3.org/2000/svg">
  <sodipodi:namedview
     id="namedview7"
     pagecolor="#ffffff"
     bordercolor="#666666"
     borderopacity="1.0"
     inkscape:pageshadow="2"
     inkscape:pageopacity="0.0"
     inkscape:pagecheckerboard="0"
     inkscape:document-units="mm"
     showgrid="false"
     inkscape:zoom="1"
     inkscape:cx="293"
     inkscape:cy="403.5"
     inkscape:window-width="1920"
     inkscape:window-height="1017"
     inkscape:window-x="-8"
     inkscape:window-y="-8"
     inkscape:window-maximized="1"
     inkscape:current-layer="layer3"
     inkscape:snap-midpoints="true" />
  <defs
     id="defs2" />
  <g
     inkscape:groupmode="layer"
     id="layer3"
     inkscape:label="Layer 3">
    <path
       style="fill:#ffffff;fill-opacity:1;stroke-width:0.0846667"
       d="m 94.464183,107.8758 c 6.029997,-1.6368 10.475497,-3.24497 14.823837,-5.36257 4.89141,-2.38207 8.50316,-4.989247 10.38212,-7.494449 1.66155,-2.215328 1.53454,-3.354949 -0.44357,-3.979832 -0.6264,-0.19788 -2.25283,-0.469908 -2.80954,-0.469908 h -0.26633 l 0.34293,0.293538 c 0.45127,0.386268 0.61935,0.759628 0.61687,1.370258 -0.007,1.625452 -1.87367,3.634617 -5.05362,5.438219 -3.75764,2.131255 -9.40964,3.999064 -13.359367,4.414844 -1.65901,0.17465 -1.6837,0.0804 -0.0847,-0.32308 6.912787,-1.74447 12.192227,-4.213466 14.277947,-6.67726 0.48981,-0.578586 0.91972,-1.392048 0.91972,-1.740246 0,-0.985743 -1.37871,-1.518496 -3.97934,-1.537677 -1.06046,-0.0078 -1.49697,0.0276 -2.27437,0.184578 -3.57543,0.721958 -8.168787,2.869715 -11.018287,5.151927 -0.81903,0.655968 -1.86419,1.716114 -2.26362,2.296062 -0.39596,0.574926 -0.46582,0.429843 -0.10278,-0.21344 0.92387,-1.637004 2.85625,-3.480172 5.37206,-5.12406 4.687367,-3.062821 11.564987,-5.560401 17.060337,-6.195384 1.44841,-0.167364 4.00674,-0.172057 5.08,-0.0093 2.00881,0.304595 3.29349,0.996626 3.77967,2.036041 0.37208,0.795494 0.25091,1.908955 -0.3319,3.049903 -0.61627,1.206437 -2.35601,3.144625 -4.04044,4.50131 -5.33717,4.298716 -15.53849,8.781506 -23.198667,10.194256 -1.30841,0.24131 -2.8283,0.41638 -3.55347,0.40933 l -0.63753,-0.006 0.762,-0.20684 z m -4.65667,-2.28553 c -1.49143,-0.23037 -2.49029,-0.63062 -3.17714,-1.27309 -2.30115,-2.15245 0.62421,-6.56946 6.98714,-10.549896 6.472527,-4.049 15.667647,-7.512021 21.843997,-8.22678 2.44807,-0.283302 2.87733,-0.250316 1.48167,0.113857 -6.48261,1.691527 -13.03099,4.234105 -17.594267,6.831428 -1.40596,0.800245 -3.49993,2.195396 -4.52073,3.012037 -1.69406,1.355239 -3.28382,3.157419 -3.86775,4.384548 -0.31185,0.655366 -0.31129,1.377246 0.001,1.787196 0.56222,0.73712 2.38843,1.19937 5.19568,1.31516 2.41623,0.0996 5.083187,-0.36903 8.593667,-1.51021 3.65867,-1.18936 7.50265,-3.064752 9.7954,-4.778959 0.85995,-0.642955 2.19439,-1.934475 2.66145,-2.575853 0.20287,-0.27859 0.38227,-0.4663 0.39866,-0.417133 0.0443,0.132942 -0.59869,1.176568 -1.15821,1.879841 -3.54992,4.461924 -13.51188,9.070934 -21.645117,10.014344 -1.3586,0.15759 -3.95543,0.15422 -4.99585,-0.007 z m 7.33616,-4.60392 c -0.68558,-0.10831 -1.16195,-0.32109 -1.44788,-0.64675 -0.21606,-0.24607 -0.25795,-0.36459 -0.25795,-0.729773 0,-0.600048 0.2495,-1.072406 0.96344,-1.823991 2.08701,-2.19708 7.808637,-4.528568 11.046477,-4.501291 l 0.73242,0.0062 -1.397,0.369312 c -4.27247,1.129474 -7.552867,2.718998 -8.711957,4.221391 -0.9146,1.185495 -0.55847,1.604855 1.51529,1.784333 l 0.634997,0.05496 -0.263967,-0.165111 c -1.49524,-0.935274 2.201117,-3.679006 5.996567,-4.451129 0.82374,-0.167579 2.09014,-0.174141 2.4762,-0.01283 0.63433,0.265041 0.69564,0.777041 0.17754,1.482829 -0.65983,0.898865 -1.64442,1.625186 -3.34185,2.465258 -2.84561,1.408302 -6.295747,2.235172 -8.122327,1.946622 z"
       id="path4655" />
  </g>
</svg>
