<?xml version="1.0" encoding="UTF-8" standalone="no"?>
<!-- Created with Inkscape (http://www.inkscape.org/) -->

<svg
   width="210mm"
   height="297mm"
   viewBox="0 0 210 297"
   version="1.1"
   id="svg5"
   inkscape:version="1.1 (c68e22c387, 2021-05-23)"
   sodipodi:docname="galaxy2.svg"
   xmlns:inkscape="http://www.inkscape.org/namespaces/inkscape"
   xmlns:sodipodi="http://sodipodi.sourceforge.net/DTD/sodipodi-0.dtd"
   xmlns="http://www.w3.org/2000/svg"
   xmlns:svg="http://www.w3.org/2000/svg">
  <sodipodi:namedview
     id="namedview7"
     pagecolor="#ffffff"
     bordercolor="#666666"
     borderopacity="1.0"
     inkscape:pageshadow="2"
     inkscape:pageopacity="0.0"
     inkscape:pagecheckerboard="0"
     inkscape:document-units="mm"
     showgrid="false"
     inkscape:zoom="1.0482005"
     inkscape:cx="371.11221"
     inkscape:cy="628.21951"
     inkscape:window-width="1920"
     inkscape:window-height="1017"
     inkscape:window-x="-8"
     inkscape:window-y="-8"
     inkscape:window-maximized="1"
     inkscape:current-layer="layer1" />
  <defs
     id="defs2" />
  <g
     inkscape:label="Layer 1"
     inkscape:groupmode="layer"
     id="layer1">
    <path
       style="fill:#ffffff;stroke-width:0.0448906;fill-opacity:1"
       d="m 73.395622,202.47576 c -2.47253,-2.16827 -4.79542,-4.49468 -6.69873,-6.7089 -5.38979,-6.27023 -9.27584,-13.4453 -11.40918,-21.06551 -1.02735,-3.66965 -1.63043,-7.28786 -1.89678,-11.37978 -0.0968,-1.48784 -0.11116,-5.09905 -0.025,-6.30713 0.24038,-3.37032 0.6533,-6.02186 1.40514,-9.02302 2.25851,-9.0153 6.97806,-17.32176 13.56941,-23.88231 7.85975,-7.82302 17.80978,-12.54079 28.39826,-13.46493 2.44744,-0.21361 5.466158,-0.22231 7.810968,-0.0225 2.98759,0.25457 5.72241,0.75026 8.43944,1.52967 4.21864,1.21015 8.25199,3.11863 11.68182,5.52753 5.1941,3.64803 9.22239,8.44558 11.80735,14.06216 2.36494,5.13851 3.53634,11.0465 3.34825,16.88701 -0.0634,1.9693 -0.42139,4.37971 -0.912,6.14091 -0.29258,1.05035 -0.41868,1.46664 -0.63598,2.09972 -1.96927,5.73703 -5.57101,10.7753 -10.11641,14.15122 -4.6627,3.46306 -10.10204,5.10945 -15.95862,4.8304 -2.76569,-0.13178 -4.97721,-0.52693 -7.29473,-1.30341 -3.07296,-1.02958 -5.632088,-2.59635 -7.756418,-4.74871 -1.34844,-1.36623 -2.4231,-2.86734 -3.28617,-4.59018 -1.29341,-2.5819 -1.95144,-5.25475 -2.09179,-8.49656 l -0.0306,-0.70703 h -0.1184 c -0.21369,0 -0.71424,0.16365 -0.97555,0.31897 -0.35394,0.21034 -0.89463,0.75511 -1.176,1.18486 -0.75836,1.15829 -1.29617,2.87233 -1.49304,4.75841 -0.0682,0.65383 -0.0675,2.16045 0.001,2.80566 0.59835,5.60217 4.44824,11.21382 10.43985,15.21725 4.574678,3.05669 9.832648,4.82632 15.352588,5.1671 1.52253,0.094 4.00668,0.0123 5.63356,-0.18524 6.85144,-0.83199 13.63165,-3.78458 19.40705,-8.45124 1.19227,-0.96338 2.14199,-1.82322 3.35392,-3.03653 1.63678,-1.63863 2.73037,-2.89714 4.05012,-4.6609 4.85168,-6.48395 7.83102,-14.13976 8.7388,-22.45559 0.22009,-2.01601 0.24843,-2.63193 0.24894,-5.40931 5.1e-4,-2.62228 -0.0108,-2.92139 -0.18053,-4.78085 -0.44288,-4.85232 -1.63902,-9.90391 -3.50711,-14.81149 -2.37388,-6.23632 -5.91834,-12.42983 -10.316,-18.02601 -0.65496,-0.83345 -0.65491,-0.83337 -0.49266,-0.69298 1.60418,1.3881 2.17283,1.91854 3.74737,3.49564 1.76773,1.77058 2.97942,3.11506 4.37207,4.85119 6.98478,8.70746 11.01007,18.60014 11.96411,29.40337 0.15943,1.80532 0.20078,2.81498 0.20223,4.93797 0.002,2.50745 -0.0769,3.84261 -0.35963,6.10511 -1.07709,8.62002 -4.54158,17.12514 -9.86518,24.21849 -2.58093,3.43893 -5.56679,6.51433 -8.91797,9.18543 -6.99051,5.57188 -15.35722,8.97524 -24.03894,9.77838 -1.75397,0.16225 -2.6988,0.19477 -4.8803,0.16795 -1.14275,-0.014 -2.32016,-0.0465 -2.61644,-0.0722 -1.22666,-0.10626 -1.65851,-0.15029 -2.49142,-0.25399 -9.892828,-1.23175 -18.680358,-5.75743 -24.720518,-12.73137 -5.40326,-6.23858 -8.41015,-14.2177 -8.62542,-22.88856 -0.0486,-1.95796 0.0114,-3.27076 0.22037,-4.82293 0.86459,-6.42151 3.928,-12.62609 8.47839,-17.17206 3.25394,-3.25077 7.02634,-5.47124 11.24732,-6.62026 1.18473,-0.3225 2.97201,-0.63247 4.25517,-0.73797 1.970208,-0.16199 4.317998,-0.0791 6.428798,0.22709 6.15407,0.89258 11.15573,3.85164 14.18063,8.38948 1.9295,2.89459 3.00159,6.21921 3.21362,9.96572 0.0244,0.43207 0.0448,0.88432 0.0451,1.00499 l 6.2e-4,0.21941 0.24597,-0.0289 c 1.6913,-0.19878 3.09961,-2.636 3.50526,-6.06612 0.0898,-0.75929 0.10105,-2.25225 0.0225,-2.98523 -0.37716,-3.51991 -2.0273,-7.05198 -4.81321,-10.3024 -0.56931,-0.66427 -1.86033,-1.96203 -2.55182,-2.56519 -4.73641,-4.13132 -10.64866,-6.70563 -16.99111,-7.39826 -3.037898,-0.33176 -6.444968,-0.15739 -9.718818,0.49741 -8.56305,1.71268 -16.7509,6.7191 -22.72008,13.89209 -0.62101,0.74626 -0.78723,0.95461 -1.33667,1.67545 -3.06802,4.02509 -5.56163,8.93511 -7.08068,13.94215 -1.01918,3.35937 -1.60172,6.49942 -1.92794,10.39219 -0.0963,1.14925 -0.13673,4.82453 -0.0679,6.17245 0.39785,7.78863 2.47449,15.40419 6.26883,22.98933 2.27138,4.54066 4.8193,8.49485 8.29102,12.86706 0.083,0.1045 0.0121,0.053 -0.28067,-0.20366 z"
       id="path836" />
  </g>
</svg>
