<?xml version="1.0" encoding="UTF-8" standalone="no"?>
<!-- Created with Inkscape (http://www.inkscape.org/) -->

<svg
   width="210mm"
   height="297mm"
   viewBox="0 0 210 297"
   version="1.1"
   id="svg5"
   inkscape:version="1.1 (c68e22c387, 2021-05-23)"
   sodipodi:docname="garbage.svg"
   xmlns:inkscape="http://www.inkscape.org/namespaces/inkscape"
   xmlns:sodipodi="http://sodipodi.sourceforge.net/DTD/sodipodi-0.dtd"
   xmlns="http://www.w3.org/2000/svg"
   xmlns:svg="http://www.w3.org/2000/svg">
  <sodipodi:namedview
     id="namedview7"
     pagecolor="#ffffff"
     bordercolor="#666666"
     borderopacity="1.0"
     inkscape:pageshadow="2"
     inkscape:pageopacity="0.0"
     inkscape:pagecheckerboard="0"
     inkscape:document-units="mm"
     showgrid="false"
     inkscape:zoom="1.0482005"
     inkscape:cx="473.19192"
     inkscape:cy="424.0601"
     inkscape:window-width="1920"
     inkscape:window-height="1017"
     inkscape:window-x="-8"
     inkscape:window-y="-8"
     inkscape:window-maximized="1"
     inkscape:current-layer="layer1" />
  <defs
     id="defs2" />
  <g
     inkscape:label="Layer 1"
     inkscape:groupmode="layer"
     id="layer1">
    <path
       style="fill:#ffffff;stroke-width:0.264583;fill-opacity:1"
       d="m 93.332269,142.30629 c -1.19781,-0.52175 -1.74366,-1.56932 -1.99867,-3.83578 -0.50904,-4.5242 -2.35436,-22.77679 -2.35436,-23.28765 0,-0.54992 0.0126,-0.55046 12.700001,-0.55046 h 12.7 l -0.003,0.59531 c -0.002,0.32742 -0.57993,6.13944 -1.28473,12.91561 -1.39617,13.42326 -1.40328,13.4555 -3.1232,14.17413 -1.2238,0.51134 -15.458151,0.50179 -16.635761,-0.0112 z m 4.11961,-4.00089 c 0.27165,-0.32731 0.22678,-2.09929 -0.23613,-9.32656 -0.31432,-4.90737 -0.63649,-9.42819 -0.71594,-10.04628 -0.16742,-1.30248 -0.83813,-1.85087 -1.69974,-1.38975 -0.67263,0.35998 -0.67317,0.19292 0.0365,11.24479 0.60068,9.35421 0.70505,9.92188 1.82418,9.92188 0.25067,0 0.60667,-0.18184 0.79112,-0.40408 z m 4.968191,0.0866 c 0.23588,-0.23588 0.3175,-2.92011 0.3175,-10.44173 0,-9.85345 -0.0142,-10.13181 -0.52916,-10.40744 -0.37598,-0.20121 -0.68237,-0.20121 -1.05834,0 -0.51501,0.27563 -0.52916,0.55399 -0.52916,10.40744 0,10.44354 0.031,10.75923 1.05833,10.75923 0.23283,0 0.56621,-0.14288 0.74083,-0.3175 z m 5.13253,-0.14552 c 0.3133,-0.36346 0.53298,-2.58871 1.02159,-10.34856 0.61055,-9.69625 0.61285,-9.89258 0.12048,-10.25261 -0.62019,-0.45349 -0.70964,-0.45425 -1.31571,-0.0111 -0.4357,0.31859 -0.55628,1.40144 -1.14811,10.31054 -0.53691,8.08226 -0.59805,10.03075 -0.32509,10.35964 0.44645,0.53794 1.15467,0.51302 1.64684,-0.0579 z M 88.305749,112.92463 c -0.80989,-0.8099 -0.85135,-1.99581 -0.0938,-2.683 0.46164,-0.41875 1.09952,-0.52641 3.77032,-0.63632 l 3.21466,-0.13229 0.0775,-1.90798 c 0.0687,-1.69086 0.15557,-1.96936 0.76329,-2.44739 0.63594,-0.50024 1.05426,-0.53942 5.758881,-0.53942 3.95935,0 5.18588,0.0823 5.58672,0.37491 0.40865,0.29831 0.54062,0.79838 0.64588,2.4474 l 0.13229,2.07248 3.21467,0.13229 c 2.6708,0.10991 3.30868,0.21757 3.77031,0.63632 0.75757,0.68719 0.71611,1.8731 -0.0938,2.683 l -0.64943,0.64943 H 101.6792 88.955149 Z m 17.077661,-4.50994 v -1.19063 h -3.70417 -3.704171 v 1.19063 1.19062 h 3.704171 3.70417 z"
       id="path968"
       sodipodi:nodetypes="csssccssccsssssssssssssssssssssssssscssssscssscccsccccccccc" />
  </g>
</svg>
