<?xml version="1.0" encoding="UTF-8" standalone="no"?>
<!-- Created with Inkscape (http://www.inkscape.org/) -->

<svg
   width="210mm"
   height="297mm"
   viewBox="0 0 210 297"
   version="1.1"
   id="svg5"
   inkscape:version="1.1 (c68e22c387, 2021-05-23)"
   sodipodi:docname="gear.svg"
   xmlns:inkscape="http://www.inkscape.org/namespaces/inkscape"
   xmlns:sodipodi="http://sodipodi.sourceforge.net/DTD/sodipodi-0.dtd"
   xmlns="http://www.w3.org/2000/svg"
   xmlns:svg="http://www.w3.org/2000/svg">
  <sodipodi:namedview
     id="namedview7"
     pagecolor="#ffffff"
     bordercolor="#666666"
     borderopacity="1.0"
     inkscape:pageshadow="2"
     inkscape:pageopacity="0.0"
     inkscape:pagecheckerboard="0"
     inkscape:document-units="mm"
     showgrid="false"
     inkscape:zoom="0.74118967"
     inkscape:cx="335.9464"
     inkscape:cy="602.4099"
     inkscape:window-width="1920"
     inkscape:window-height="1017"
     inkscape:window-x="-8"
     inkscape:window-y="-8"
     inkscape:window-maximized="1"
     inkscape:current-layer="layer1" />
  <defs
     id="defs2" />
  <g
     inkscape:label="Layer 1"
     inkscape:groupmode="layer"
     id="layer1">
    <path
       style="fill:#fffffe;stroke-width:0.261271;fill-opacity:1"
       d="m 89.501503,212.76818 c -1.646138,-0.18491 -3.056608,-0.39852 -3.134386,-0.47465 -0.07775,-0.0761 0.116382,-1.89058 0.431456,-4.03209 0.315073,-2.1415 0.51088,-3.99182 0.435128,-4.11182 -0.07575,-0.11998 -0.824346,-0.29591 -1.663544,-0.39093 -3.051089,-0.34547 -9.717941,-2.03017 -13.144735,-3.32165 -1.452367,-0.54737 -2.736574,-1.01933 -2.853795,-1.04879 -0.11722,-0.0294 -0.949022,1.59585 -1.848462,3.61179 -0.89944,2.01593 -1.700582,3.72778 -1.780326,3.80413 -0.21459,0.20539 -6.042225,-2.62266 -9.229377,-4.47887 -2.586269,-1.50624 -6.810521,-4.37132 -8.544358,-5.79516 l -0.754404,-0.61953 2.645173,-3.15688 2.645164,-3.15688 -2.022802,-1.74938 c -2.862887,-2.47591 -7.054603,-6.79919 -8.72679,-9.00071 -0.782459,-1.03013 -1.495444,-1.87117 -1.5844,-1.86895 -0.08893,0.002 -1.627135,1.05837 -3.41819,2.34702 -3.055121,2.19814 -3.279582,2.31376 -3.630684,1.87014 -2.240745,-2.83104 -5.474267,-8.32228 -7.543936,-12.81131 -1.986253,-4.30807 -1.921939,-4.04855 -1.079298,-4.35489 5.315038,-1.93224 6.960777,-2.66816 6.834015,-3.05594 -0.07445,-0.22785 -0.501778,-1.42161 -0.949541,-2.65283 -1.325207,-3.64388 -3.181334,-11.62474 -3.181334,-13.67894 0,-0.39914 -0.08913,-0.77823 -0.198053,-0.84242 -0.108927,-0.0642 -1.891199,0.0648 -3.960609,0.2867 -2.069419,0.22188 -3.851861,0.316 -3.960998,0.20917 -0.265041,-0.25947 -0.256278,-17.11295 0.009,-17.37268 0.114107,-0.11171 1.896548,-0.0174 3.960998,0.20964 2.06444,0.227 3.84265,0.36 3.951576,0.29555 0.108927,-0.0645 0.198053,-0.44377 0.198053,-0.84292 0,-2.05418 1.856127,-10.03505 3.181334,-13.67892 0.447763,-1.23121 0.874748,-2.42383 0.948853,-2.65026 0.106132,-0.32429 -0.67992,-0.72546 -3.701776,-1.88924 -3.606472,-1.38894 -3.823287,-1.5115 -3.616013,-2.04412 1.858154,-4.77472 6.345561,-12.801559 9.107696,-16.291356 0.351102,-0.443604 0.575553,-0.327991 3.630684,1.870154 1.791045,1.288643 3.329234,2.344809 3.41819,2.347017 0.08893,0.002 0.801941,-0.838815 1.5844,-1.868953 1.672187,-2.201507 5.863903,-6.524788 8.726791,-9.000705 l 2.022791,-1.749374 -2.638886,-3.149398 -2.638885,-3.149398 0.544085,-0.496221 c 1.155459,-1.053817 5.836567,-4.236546 8.610089,-5.854084 3.572549,-2.08354 9.166251,-4.769409 9.402689,-4.514791 0.09591,0.103311 0.898002,1.816435 1.782361,3.806943 0.884369,1.990507 1.700273,3.594999 1.813112,3.565536 0.112839,-0.02946 1.393463,-0.501412 2.84583,-1.048777 3.426784,-1.291483 10.093646,-2.976192 13.144735,-3.321662 0.839198,-0.09503 1.587793,-0.270939 1.663544,-0.39093 0.07575,-0.119989 -0.120055,-1.97031 -0.435128,-4.111822 -0.315073,-2.141513 -0.521729,-3.943709 -0.459241,-4.00488 0.645437,-0.63185 11.904853,-1.099399 16.167461,-0.671358 1.58539,0.159201 2.91548,0.321713 2.95575,0.361137 0.0403,0.03942 -0.11172,1.84073 -0.33776,4.0029 -0.22604,2.16217 -0.34184,4.107587 -0.25735,4.323149 0.0933,0.237994 0.48772,0.391931 1.00424,0.391931 1.72818,0 9.09544,1.613378 12.23726,2.679871 1.48585,0.504374 4.44598,1.664048 6.08091,2.38229 0.14929,0.06559 1.02823,-1.628212 1.95319,-3.763994 1.05816,-2.443355 1.82264,-3.883242 2.06172,-3.883242 1.43943,0 15.65067,8.350948 15.65067,9.196804 0,0.07994 -1.13554,1.606832 -2.52342,3.393089 -1.38789,1.786256 -2.46457,3.397897 -2.39263,3.581423 0.072,0.183517 0.76187,0.797389 1.53317,1.364148 2.77125,2.036329 8.76713,8.140904 11.02368,11.223502 0.49437,0.675347 1.00049,1.22791 1.1247,1.22791 0.1242,0 1.72358,-1.102713 3.55418,-2.450475 1.83059,-1.347763 3.41441,-2.398409 3.51959,-2.334775 0.43557,0.263536 2.96726,4.088349 4.62184,6.982555 1.83175,3.204136 2.91895,5.378386 3.97677,7.953026 l 0.61232,1.49033 -0.84015,0.33885 c -0.46209,0.18638 -2.29993,0.90456 -4.08409,1.59596 -2.57967,0.99969 -3.20847,1.33974 -3.07079,1.66066 0.45289,1.05559 2.5708,7.83261 2.91328,9.32207 0.51661,2.24677 1.05432,5.42499 1.27925,7.56134 0.10105,0.9597 0.26339,1.74458 0.36076,1.74416 0.0974,-5.2e-4 2.01051,-0.17344 4.25141,-0.38448 2.24091,-0.21104 4.14219,-0.31732 4.22507,-0.23619 0.19691,0.19275 0.19691,15.00952 0,15.20228 -0.0828,0.0811 -1.98416,-0.0251 -4.22507,-0.23621 -2.2409,-0.21103 -4.15404,-0.38404 -4.25141,-0.38446 -0.0974,-5.2e-4 -0.25971,0.78444 -0.36076,1.74415 -0.22493,2.13634 -0.76264,5.31456 -1.27925,7.56134 -0.34064,1.48144 -2.46208,8.27267 -2.90717,9.3065 -0.12925,0.30021 0.56542,0.67675 3.07079,1.66449 1.78079,0.70206 3.61589,1.42725 4.07798,1.61152 l 0.84015,0.33503 -0.61232,1.49035 c -1.05782,2.57463 -2.14502,4.74888 -3.97677,7.95301 -1.65458,2.89422 -4.18627,6.71903 -4.62184,6.98256 -0.10518,0.0636 -1.689,-0.987 -3.51959,-2.33477 -1.8306,-1.34776 -3.42998,-2.45047 -3.55418,-2.45047 -0.12421,0 -0.63033,0.55256 -1.1247,1.22791 -2.25655,3.0826 -8.25243,9.18716 -11.02368,11.2235 -0.7713,0.56675 -1.46123,1.18063 -1.53317,1.36414 -0.072,0.18353 1.00474,1.79516 2.39263,3.58143 1.38788,1.78625 2.52342,3.31314 2.52342,3.39308 0,0.84586 -14.21124,9.19681 -15.65067,9.19681 -0.23908,0 -1.00356,-1.43989 -2.06172,-3.88325 -0.92496,-2.13578 -1.8039,-3.82957 -1.95319,-3.76399 -1.63006,0.71611 -4.59495,1.87804 -6.08091,2.38311 -3.05698,1.03903 -10.54817,2.67905 -12.23726,2.67905 -0.51652,0 -0.91095,0.15394 -1.00424,0.39194 -0.0845,0.21555 0.0313,2.16097 0.25735,4.32314 0.22604,2.16217 0.37933,3.9622 0.34064,4.00008 -0.0387,0.0379 -1.19053,0.18435 -2.55964,0.3255 -3.339376,0.34429 -9.728931,0.28183 -13.40428,-0.13105 z m 13.951737,-20.40006 c 10.63401,-1.39807 20.62566,-5.5071 28.51919,-11.72842 1.37975,-1.08745 3.2638,-2.67706 4.18677,-3.53244 1.58629,-1.47013 5.6721,-5.97764 6.24385,-6.88829 0.14524,-0.23133 1.07168,-1.59793 2.05877,-3.03688 7.03201,-10.25122 10.41492,-23.00601 9.44928,-35.62725 -0.79568,-10.39985 -3.88894,-19.40591 -9.44928,-27.51173 -0.98709,-1.43897 -1.91353,-2.80557 -2.05877,-3.0369 -0.56341,-0.89734 -4.64897,-5.410652 -6.24385,-6.897545 -9.18983,-8.567614 -20.99977,-13.949139 -33.76042,-15.383868 -4.301927,-0.483682 -11.698761,-0.187972 -16.222988,0.648566 -3.721427,0.688107 -9.945277,2.57113 -13.090202,3.960455 -5.603773,2.475546 -11.384849,6.356572 -16.070029,10.78833 -3.896435,3.685664 -5.551965,5.632073 -8.453955,9.939292 -4.162823,6.17859 -7.169858,13.42301 -8.662397,20.86907 -0.673073,3.35786 -0.716219,4.00143 -0.716219,10.68208 0,6.68066 0.04312,7.32424 0.716219,10.68209 1.492539,7.44606 4.499574,14.69049 8.662397,20.86907 2.90199,4.30721 4.55752,6.25363 8.453955,9.9393 4.68518,4.43175 10.466256,8.31277 16.070029,10.78831 4.566433,2.0173 11.938346,3.99035 17.121512,4.58246 2.970928,0.3394 10.305838,0.28087 13.246138,-0.1057 z"
       id="path836" />
  </g>
</svg>
