<?xml version="1.0" encoding="UTF-8" standalone="no"?>
<!-- Created with Inkscape (http://www.inkscape.org/) -->

<svg
   width="210mm"
   height="297mm"
   viewBox="0 0 210 297"
   version="1.1"
   id="svg5"
   sodipodi:docname="load.svg"
   inkscape:version="1.1 (c68e22c387, 2021-05-23)"
   xmlns:inkscape="http://www.inkscape.org/namespaces/inkscape"
   xmlns:sodipodi="http://sodipodi.sourceforge.net/DTD/sodipodi-0.dtd"
   xmlns="http://www.w3.org/2000/svg"
   xmlns:svg="http://www.w3.org/2000/svg">
  <sodipodi:namedview
     id="namedview7"
     pagecolor="#ffffff"
     bordercolor="#666666"
     borderopacity="1.0"
     inkscape:pageshadow="2"
     inkscape:pageopacity="0.0"
     inkscape:pagecheckerboard="0"
     inkscape:document-units="mm"
     showgrid="false"
     inkscape:zoom="0.74118967"
     inkscape:cx="427.6908"
     inkscape:cy="630.74274"
     inkscape:window-width="1920"
     inkscape:window-height="1017"
     inkscape:window-x="-8"
     inkscape:window-y="-8"
     inkscape:window-maximized="1"
     inkscape:current-layer="layer1" />
  <defs
     id="defs2" />
  <g
     inkscape:label="Layer 1"
     inkscape:groupmode="layer"
     id="layer1">
    <path
       id="path1188"
       style="fill:#ffffff;fill-opacity:1;stroke-width:0.999999"
       d="M 393.97656 322.93359 C 384.26505 322.96058 374.5385 328.08225 369.11719 338.28516 L 366.46094 343.28516 L 366.19141 442.74805 L 365.92383 542.21094 L 328.19141 504.54297 C 301.30407 477.70027 289.32385 466.4007 286.50391 465.22852 C 284.32743 464.32377 280.01031 463.58398 276.91016 463.58398 C 260.19894 463.58398 249.05989 481.29556 256.0293 496.78516 C 257.57588 500.22237 272.15475 515.41123 317.75781 561.10156 C 350.59465 594.00122 378.75891 621.86242 380.3457 623.01562 C 381.9325 624.1688 384.85752 625.72152 386.8457 626.46484 C 391.29247 628.12734 399.53598 627.55409 404.09961 625.26562 C 405.94901 624.33828 434.84623 596.2879 468.31641 562.93164 C 516.6953 514.71745 529.66034 501.25813 531.55664 497.2832 C 537.29154 485.26192 532.32975 470.98366 520.46094 465.35156 C 515.50889 463.00179 506.18924 463.13017 500.72461 465.625 C 497.68984 467.0105 485.80523 478.25982 459.46094 504.68359 L 422.46094 541.79492 L 421.96094 442.53906 L 421.46094 343.28516 L 418.75195 338.14648 C 413.38612 327.97358 403.68808 322.90661 393.97656 322.93359 z M 582.29297 639.58789 C 578.51696 639.64544 574.6826 640.50452 571.12891 642.27539 C 562.05589 646.79669 558.96094 652.9493 558.96094 666.45703 C 558.96094 671.12365 558.43907 676.68401 557.80078 678.81445 C 556.21092 684.12095 550.90371 690.03145 545.20898 692.83594 L 540.46094 695.17383 L 393.96094 695.17383 C 232.83582 695.17383 244.79362 695.62906 237.16797 689.19922 C 231.25819 684.21618 229.6417 679.63914 228.94922 665.91602 C 228.3705 654.44693 228.1417 653.39191 225.37891 649.46094 C 221.01869 643.25707 213.56433 639.66886 205.09766 639.69531 C 197.07032 639.72188 191.71348 641.91415 187.24805 647 C 182.21209 652.73551 181.77458 655.69781 182.13477 681.69922 L 182.46094 705.22461 L 185.66406 711.72461 C 191.47966 723.52879 205.23289 734.11464 217.96094 736.58203 C 220.43592 737.0618 299.41095 737.49667 393.46094 737.54883 C 581.471 737.65303 570.97053 737.98327 582.98047 731.58203 C 590.74694 727.44254 598.39852 719.56199 602.25977 711.72461 L 605.46094 705.22461 L 605.77734 681.26758 C 606.04565 660.99124 605.84412 656.65573 604.46289 653.03906 C 601.2141 644.5322 591.94277 639.44082 582.29297 639.58789 z "
       transform="scale(0.26458333)" />
  </g>
</svg>
