<?xml version="1.0" encoding="UTF-8" standalone="no"?>
<!-- Created with Inkscape (http://www.inkscape.org/) -->

<svg
   width="210mm"
   height="297mm"
   viewBox="0 0 210 297"
   version="1.1"
   id="svg5"
   inkscape:version="1.1 (c68e22c387, 2021-05-23)"
   sodipodi:docname="planet.svg"
   xmlns:inkscape="http://www.inkscape.org/namespaces/inkscape"
   xmlns:sodipodi="http://sodipodi.sourceforge.net/DTD/sodipodi-0.dtd"
   xmlns="http://www.w3.org/2000/svg"
   xmlns:svg="http://www.w3.org/2000/svg">
  <sodipodi:namedview
     id="namedview7"
     pagecolor="#ffffff"
     bordercolor="#666666"
     borderopacity="1.0"
     inkscape:pageshadow="2"
     inkscape:pageopacity="0.0"
     inkscape:pagecheckerboard="0"
     inkscape:document-units="mm"
     showgrid="false"
     inkscape:zoom="0.70710678"
     inkscape:cx="257.38687"
     inkscape:cy="538.10826"
     inkscape:window-width="1920"
     inkscape:window-height="1017"
     inkscape:window-x="-8"
     inkscape:window-y="-8"
     inkscape:window-maximized="1"
     inkscape:current-layer="layer1" />
  <defs
     id="defs2" />
  <g
     inkscape:label="Layer 1"
     inkscape:groupmode="layer"
     id="layer1">
    <path
       style="fill:#fffffd;stroke-width:0.264583;fill-opacity:1"
       d="m 153.03507,172.88665 c -0.36381,-0.0648 -1.84023,-0.30461 -3.28094,-0.53301 -13.76846,-2.1828 -35.46611,-12.25102 -56.233226,-26.09353 -40.037135,-26.68712 -62.81593,-57.311533 -46.457573,-62.458793 2.74853,-0.86485 8.264726,-0.79711 12.842276,0.1577 6.747149,1.40734 14.199223,3.94171 22.370227,7.60785 l 4.09321,1.83653 2.5752,-1.29227 c 3.25552,-1.63367 6.4947,-2.77934 9.93368,-3.51344 3.876936,-0.82759 10.538716,-0.82055 14.469636,0.0153 3.6484,0.77577 6.16386,1.64246 9.39271,3.23624 8.60265,4.24631 15.62457,12.265463 18.73669,21.397623 1.62379,4.76485 2.36096,11.23013 1.79907,15.77865 l -0.2986,2.41719 5.25232,5.25573 c 5.88254,5.88636 9.93081,10.62488 13.03285,15.25502 7.20243,10.75042 7.29279,18.09238 0.2502,20.32872 -1.6857,0.53528 -6.81277,0.90088 -8.47773,0.60451 z m -7.72181,-16.52697 c 0.85888,-0.18419 1.55917,-0.54925 2.06355,-1.0757 2.07612,-2.16701 0.003,-7.12061 -5.74639,-13.73258 l -1.21819,-1.40088 -0.6902,1.5076 c -0.71163,1.55438 -3.1942,5.50929 -4.33792,6.91059 -0.35632,0.43656 -1.54535,1.70899 -2.6423,2.82762 l -1.99445,2.03387 1.02354,0.42923 c 1.65484,0.69397 6.15681,1.97954 8.29958,2.36999 2.49299,0.45427 3.60334,0.48186 5.24278,0.13026 z M 71.015478,112.37132 c 7.94e-4,-0.17331 0.700286,-1.74386 1.554671,-3.49011 1.636747,-3.34529 3.352212,-5.9485 5.463588,-8.29097 1.499687,-1.663853 1.567797,-1.571973 -1.996787,-2.693493 -3.618466,-1.13848 -6.175034,-1.62683 -8.606882,-1.64408 -3.53019,-0.025 -4.882495,0.99966 -4.882495,3.6997 0,2.335893 2.852443,7.172063 6.841485,11.599413 1.166286,1.29443 1.623647,1.52489 1.62642,0.81954 z m 30.293542,50.05427 c -13.832526,-1.72817 -26.235373,-11.8931 -30.628078,-25.10168 -0.778979,-2.34233 -1.635993,-6.0564 -1.44222,-6.25017 0.07484,-0.0748 1.368147,0.89529 2.874023,2.15585 10.085149,8.44219 26.301779,19.43017 38.192115,25.878 2.03729,1.10477 3.88276,2.11785 4.10104,2.25128 0.30409,0.1859 0.14944,0.30912 -0.66146,0.52705 -2.91364,0.78305 -8.53476,1.027 -12.43542,0.53967 z"
       id="path836-1" />
  </g>
</svg>
