<?xml version="1.0" encoding="UTF-8" standalone="no"?>
<!-- Created with Inkscape (http://www.inkscape.org/) -->

<svg
   width="210mm"
   height="297mm"
   viewBox="0 0 210 297"
   version="1.1"
   id="svg5"
   inkscape:version="1.1 (c68e22c387, 2021-05-23)"
   sodipodi:docname="ringLarge.svg"
   xmlns:inkscape="http://www.inkscape.org/namespaces/inkscape"
   xmlns:sodipodi="http://sodipodi.sourceforge.net/DTD/sodipodi-0.dtd"
   xmlns="http://www.w3.org/2000/svg"
   xmlns:svg="http://www.w3.org/2000/svg">
  <sodipodi:namedview
     id="namedview7"
     pagecolor="#ffffff"
     bordercolor="#666666"
     borderopacity="1.0"
     inkscape:pageshadow="2"
     inkscape:pageopacity="0.0"
     inkscape:pagecheckerboard="0"
     inkscape:document-units="mm"
     showgrid="false"
     inkscape:zoom="4.192802"
     inkscape:cx="332.47456"
     inkscape:cy="369.56193"
     inkscape:window-width="1920"
     inkscape:window-height="1017"
     inkscape:window-x="-8"
     inkscape:window-y="-8"
     inkscape:window-maximized="1"
     inkscape:current-layer="layer3" />
  <defs
     id="defs2" />
  <g
     inkscape:label="ringSmall"
     inkscape:groupmode="layer"
     id="layer1"
     sodipodi:insensitive="true"
     style="display:none">
    <path
       id="path848-10"
       style="fill:#000000;fill-opacity:1;fill-rule:evenodd;stroke-width:3.33637"
       d="m 299.56055,208.81836 a 37.795276,37.795276 0 0 0 -37.79493,37.79492 37.795276,37.795276 0 0 0 37.79493,37.79492 37.795276,37.795276 0 0 0 37.79492,-37.79492 37.795276,37.795276 0 0 0 -37.79492,-37.79492 z m 0,4.72461 a 33.070866,33.070866 0 0 1 33.07226,33.07031 33.070866,33.070866 0 0 1 -33.07226,33.07031 33.070866,33.070866 0 0 1 -33.07032,-33.07031 33.070866,33.070866 0 0 1 33.07032,-33.07031 z"
       transform="scale(0.26458333)" />
  </g>
  <g
     inkscape:groupmode="layer"
     id="layer2"
     inkscape:label="ringMedium"
     style="display:none"
     sodipodi:insensitive="true">
    <path
       id="path848"
       style="fill:#000000;fill-opacity:1;fill-rule:evenodd;stroke-width:0.882748"
       d="m 79.258727,86.744057 a 10,10 0 0 0 -9.999906,9.999906 10,10 0 0 0 9.999906,9.999907 10,10 0 0 0 9.999905,-9.999907 10,10 0 0 0 -9.999905,-9.999906 z m 0,2.500107 a 7.5,7.5 0 0 1 7.499799,7.499799 7.5,7.5 0 0 1 -7.499799,7.499807 7.5,7.5 0 0 1 -7.4998,-7.499807 7.5,7.5 0 0 1 7.4998,-7.499799 z" />
  </g>
  <g
     inkscape:groupmode="layer"
     id="layer3"
     inkscape:label="ringLarge"
     style="display:inline">
    <path
       id="path982"
       style="fill:#ffffff;fill-opacity:1;fill-rule:evenodd;stroke-width:7.98648"
       d="M 305.87305 340.58398 A 37.795276 37.795276 0 0 0 268.07812 378.37891 A 37.795276 37.795276 0 0 0 305.87305 416.17383 A 37.795276 37.795276 0 0 0 343.66992 378.37891 A 37.795276 37.795276 0 0 0 305.87305 340.58398 z M 305.87305 353.8125 A 24.566929 24.566929 0 0 1 330.44141 378.37891 A 24.566929 24.566929 0 0 1 305.87305 402.94531 A 24.566929 24.566929 0 0 1 281.30664 378.37891 A 24.566929 24.566929 0 0 1 305.87305 353.8125 z "
       transform="scale(0.26458333)" />
  </g>
</svg>
